<svg width="147" height="50" viewBox="0 0 147 50" fill="none" xmlns="http://www.w3.org/2000/svg">
<path d="M6.56475e-05 6.71533L14.5356 17.0681L14.4892 22.0997C13.5475 21.4195 12.7365 20.8587 12.1125 20.4342C10.8195 19.5558 10.6143 19.4616 9.2158 18.5073C8.10266 17.747 8.09142 17.7076 6.87849 16.8868C6.42874 16.5818 6.20386 16.4286 5.88622 16.2206C5.43365 15.9255 5.31419 15.8608 5.03028 15.6584C4.77167 15.4729 4.56788 15.3099 4.43717 15.203C4.43717 15.9864 4.43717 16.7706 4.43717 17.5558C4.43717 18.4581 4.43295 19.3595 4.42452 20.26C4.41328 20.6254 4.41187 21.1173 4.44279 21.7006C4.47371 22.2839 4.52571 22.7153 4.54117 22.8404C4.55945 22.9922 4.804 24.9753 5.39992 25.8566C5.63187 26.2045 5.90934 26.5198 6.22494 26.794C6.41187 26.9543 6.62269 27.1032 7.04574 27.3998C7.44068 27.6809 7.73864 27.872 7.76675 27.8903C8.15607 28.1461 8.80681 28.5832 9.94665 29.3745V26.8587L9.6754 26.6746L9.01482 26.2248L8.4962 25.8706L8.35565 25.7708C7.90309 25.463 7.83703 25.4265 7.65291 25.2888C7.51912 25.195 7.3923 25.0917 7.27343 24.9796C7.18629 24.8938 7.12023 24.8179 7.08509 24.7758C7.01825 24.6968 6.95585 24.6143 6.89817 24.5284C6.87006 24.4862 6.84616 24.4483 6.80259 24.3752C6.69156 24.1883 6.63534 24.0941 6.5988 24.0182C6.49901 23.806 6.47793 23.612 6.43998 23.2494C6.43998 23.2269 6.42874 23.1454 6.42171 23.0358C6.40765 22.832 6.41047 22.6788 6.41047 22.6282C6.41047 22.6282 6.40203 22.3597 6.38798 21.8243L6.36127 20.9037L6.34862 20.4202L6.33598 19.9522C6.33598 19.9522 6.29943 18.6872 6.29943 18.6802L14.4259 24.4834V38.0955L4.08721 31.8931C2.8222 31.0257 1.78849 29.8622 1.07612 28.5038C0.363746 27.1455 -0.005664 25.6335 6.56475e-05 24.0997V6.71533Z" fill="#FB8110"/>
<path d="M37.4475 0V5.26493L31.0751 9.66409L22.3456 15.5179C21.6607 15.9807 21.1002 16.605 20.7136 17.3357C20.3271 18.0664 20.1264 18.881 20.1292 19.7077V50H15.6963V19.397C15.7652 16.3486 17.3238 13.5784 19.8874 11.8454L37.4475 0Z" fill="#FB8110"/>
<path d="M33.0153 9.6669L37.4482 6.61841V16.3401C37.4493 17.8691 37.0817 19.3758 36.3766 20.7325C35.6714 22.0892 34.6496 23.2558 33.3976 24.1335L21.3779 32.4104V19.4687C21.3779 19.0391 21.4843 18.6162 21.6876 18.2378C21.8909 17.8593 22.1848 17.5372 22.5431 17.3001L30.938 11.733V16.6297C30.9379 17.076 30.832 17.516 30.629 17.9135C30.426 18.3109 30.1316 18.6547 29.7701 18.9164L25.808 21.7737V23.9213L30.8677 20.423C31.5298 19.9665 32.0712 19.3561 32.4453 18.6442C32.8194 17.9322 33.015 17.1401 33.0153 16.3359V9.6669Z" fill="#FB8110"/>
<path d="M90.1885 12.1082C87.9847 12.1082 85.8864 12.7843 84.0522 13.7667V12.0464H77.7275V37.019H84.0522V36.1673V27.0176V22.2839C85.1372 19.9044 87.6854 18.0084 90.1885 18.0084C91.7838 18.0084 93.3973 18.78 94.6411 19.9578C95.2765 17.8488 96.4243 15.9299 97.9819 14.3725C95.6491 12.8992 92.9477 12.1144 90.1885 12.1082Z" fill="white"/>
<path d="M65.9764 13.2213L65.9244 13.2481C65.8627 13.2714 65.8034 13.3006 65.7473 13.3352C64.0423 12.4494 62.1563 11.9679 60.2353 11.9279C58.3143 11.8879 56.4099 12.2905 54.6695 13.1046C52.9291 13.9187 51.3993 15.1224 50.1987 16.6225C48.9981 18.1226 48.1589 19.8789 47.7459 21.7554C47.5496 22.6348 47.4511 23.5332 47.4522 24.4343C47.4487 26.0779 47.7698 27.7061 48.3972 29.2253C49.0246 30.7446 49.9458 32.1249 51.1081 33.2872C52.2703 34.4494 53.6507 35.3707 55.1699 35.9981C56.6891 36.6254 58.3173 36.9466 59.961 36.9431C60.0846 36.9431 60.2168 36.9431 60.3404 36.9346C62.3197 36.8811 64.2578 36.3575 65.9947 35.4069C66.074 35.365 66.1505 35.3181 66.2238 35.2663C66.4769 35.9763 66.6053 36.7248 66.6033 37.4785C66.6044 38.2593 66.4615 39.0336 66.1816 39.7625C65.832 40.7347 65.2577 41.6107 64.5054 42.3189C63.7532 43.0272 62.8443 43.5478 61.8527 43.8384C61.2382 44.0183 60.6013 44.1101 59.961 44.111C58.2018 44.1095 56.5152 43.4094 55.2723 42.1645C54.0293 40.9197 53.3316 39.2321 53.3327 37.4729C53.3327 37.2972 53.3411 37.1202 53.3496 36.9445H47.4733C47.458 37.1202 47.4519 37.2966 47.455 37.4729C47.4572 39.6462 48.0251 41.7814 49.1029 43.6685C50.1807 45.5557 51.7311 47.1297 53.6018 48.2359C55.4724 49.342 57.5988 49.9421 59.7718 49.9771C61.9447 50.0122 64.0893 49.4809 65.9947 48.4357C68.0575 47.2903 69.7608 45.5933 70.9139 43.5348C71.9815 41.5992 72.5187 39.4159 72.4711 37.2059C72.4234 34.996 71.7927 32.8378 70.6426 30.9501C70.7102 30.8535 70.7721 30.753 70.8281 30.6493C70.8625 30.6027 70.8922 30.5528 70.9167 30.5003C71.9903 28.5548 72.5275 26.3588 72.4731 24.1373C72.4188 21.9159 71.7749 19.7488 70.6075 17.858C70.748 17.8313 70.8886 17.8145 71.0291 17.7962C71.0643 17.7962 71.091 17.7878 71.1261 17.7878C71.2084 17.7808 71.2909 17.7779 71.3735 17.7793C71.426 17.7712 71.4792 17.7679 71.5323 17.7695C73.1275 17.7695 74.741 18.5453 75.9849 19.7273V12.6381C74.5407 12.2044 73.0402 11.9874 71.5323 11.9944C69.6122 11.9858 67.7143 12.4049 65.9764 13.2213ZM59.961 31.0724C59.6124 31.0747 59.2643 31.0456 58.9209 30.9852C57.7733 30.8051 56.6934 30.3256 55.7903 29.5949C54.8871 28.8642 54.1926 27.9083 53.7768 26.8236C53.4782 26.0625 53.3256 25.2519 53.3271 24.4343C53.3263 23.023 53.7756 21.6483 54.6097 20.5099C55.4438 19.3715 56.6192 18.5287 57.9651 18.1041C59.311 17.6795 60.7572 17.6952 62.0935 18.1489C63.4299 18.6026 64.5867 19.4706 65.396 20.6268C65.4339 20.676 65.4704 20.728 65.5056 20.78C65.6192 20.9462 65.7239 21.1184 65.819 21.2958C66.3375 22.2605 66.6075 23.3391 66.6047 24.4343C66.6091 25.1237 66.4989 25.8091 66.2786 26.4624C66.2612 26.5252 66.2405 26.5872 66.2168 26.6479C66.2069 26.6746 66.1985 26.6915 66.1901 26.7182C65.8387 27.6909 65.2628 28.5669 64.5091 29.2752C63.7555 29.9834 62.8454 30.5038 61.8527 30.7941L61.6138 30.8587C61.5323 30.8798 61.4508 30.8995 61.3678 30.9178L61.3032 30.9304C61.2786 30.9361 61.2538 30.9403 61.2287 30.9431L61.1655 30.9529C60.8943 31.0035 60.6201 31.0359 60.3447 31.0499C60.2174 31.066 60.0892 31.0735 59.961 31.0724Z" fill="white"/>
<path d="M114.6 13.4265C111.911 12.0202 108.803 11.6372 105.853 12.3485C102.903 13.0598 100.311 14.817 98.5584 17.2942C96.8056 19.7714 96.011 22.8003 96.3218 25.819C96.6327 28.8376 98.0281 31.641 100.249 33.709C102.47 35.7769 105.366 36.969 108.399 37.0641C111.432 37.1592 114.396 36.1508 116.742 34.226C119.088 32.3012 120.657 29.5907 121.156 26.5974C121.655 23.6042 121.052 20.5314 119.458 17.9493C118.276 16.0311 116.598 14.4682 114.6 13.4265ZM115.042 26.8095C114.69 27.7819 114.114 28.6577 113.36 29.3658C112.607 30.074 111.697 30.5946 110.704 30.8854C110.091 31.0656 109.456 31.1574 108.817 31.158C107.676 31.159 106.554 30.866 105.559 30.3072C104.565 29.7483 103.731 28.9426 103.138 27.9677C102.546 26.9928 102.215 25.8816 102.177 24.7414C102.138 23.6012 102.395 22.4704 102.921 21.4582C103.447 20.4459 104.226 19.5864 105.181 18.9625C106.136 18.3385 107.236 17.9713 108.374 17.8962C109.512 17.8212 110.651 18.0407 111.68 18.5338C112.709 19.0268 113.593 19.7767 114.248 20.7111C114.404 20.924 114.545 21.148 114.669 21.3815C115.188 22.3462 115.458 23.4248 115.455 24.5199C115.46 25.3021 115.319 26.0783 115.042 26.8095Z" fill="white"/>
<path d="M144.945 3.25784C143.141 2.38665 141.164 1.93681 139.161 1.94231C132.378 1.94231 126.859 6.97534 126.652 13.2607C126.652 13.3787 126.652 13.4968 126.652 13.6162V13.9353H119.299C120.96 15.5846 122.212 17.6007 122.953 19.8214H126.648V36.8123H132.973V19.8214H143.382V13.9353H133.066L133.078 13.2607C133.106 10.1166 136.779 7.9381 139.122 7.90436C140.931 7.87766 142.451 8.70127 143.574 9.85377C144.277 7.92545 145.345 5.77787 146.904 4.44688C146.288 3.992 145.632 3.59402 144.945 3.25784Z" fill="white"/>
</svg>
